<svg width="64" height="64" viewBox="0 0 64 64" fill="none" xmlns="http://www.w3.org/2000/svg">
<g clip-path="url(#clip0_280_1359)">
<path d="M50.0801 30.32L37.3334 14.32C37.1133 14.0461 36.8413 13.8183 36.5329 13.6499C36.2246 13.4814 35.886 13.3755 35.5365 13.3384C35.1871 13.3012 34.8338 13.3334 34.4969 13.4333C34.16 13.5331 33.8462 13.6985 33.5734 13.92C33.2995 14.1401 33.0717 14.4121 32.9032 14.7205C32.7348 15.0288 32.6289 15.3674 32.5917 15.7168C32.5546 16.0663 32.5868 16.4196 32.6866 16.7565C32.7865 17.0934 32.9519 17.4072 33.1734 17.68L44.5601 32L32.6134 46.32C32.3888 46.5895 32.2197 46.9006 32.1156 47.2355C32.0114 47.5705 31.9744 47.9227 32.0066 48.2719C32.0388 48.6212 32.1396 48.9607 32.3032 49.2709C32.4668 49.5812 32.69 49.8561 32.9601 50.08C33.4435 50.468 34.0469 50.6754 34.6667 50.6667C35.0585 50.6673 35.4456 50.5816 35.8005 50.4157C36.1554 50.2498 36.4693 50.0077 36.7201 49.7067L50.0534 33.7067C50.4494 33.2326 50.6685 32.6358 50.6734 32.0181C50.6782 31.4004 50.4685 30.8002 50.0801 30.32Z" fill="#333333"/>
<path d="M18.6666 14.32C18.2211 13.7507 17.5676 13.3817 16.85 13.2941C16.1323 13.2066 15.4093 13.4078 14.84 13.8533C14.2706 14.2989 13.9016 14.9524 13.8141 15.67C13.7266 16.3877 13.9277 17.1107 14.3733 17.68L25.8933 32L13.9466 46.2933C13.7221 46.5628 13.5529 46.8739 13.4488 47.2089C13.3447 47.5438 13.3077 47.896 13.3399 48.2453C13.3721 48.5945 13.4729 48.934 13.6365 49.2443C13.8001 49.5545 14.0233 49.8295 14.2933 50.0533C14.7731 50.4509 15.3769 50.6679 16 50.6667C16.3917 50.6673 16.7788 50.5816 17.1337 50.4157C17.4886 50.2498 17.8026 50.0077 18.0533 49.7067L31.3866 33.7067C31.7789 33.2295 31.9933 32.631 31.9933 32.0133C31.9933 31.3957 31.7789 30.7972 31.3866 30.32L18.6666 14.32Z" fill="#333333"/>
</g>
<defs>
<clipPath id="clip0_280_1359">
<rect width="64" height="64" fill="white"/>
</clipPath>
</defs>
</svg>
