<svg width="64" height="64" viewBox="0 0 64 64" fill="none" xmlns="http://www.w3.org/2000/svg">
<path d="M31.0401 13.9467C30.7706 13.7221 30.4595 13.553 30.1245 13.4488C29.7896 13.3447 29.4374 13.3077 29.0881 13.3399C28.7389 13.3721 28.3994 13.4729 28.0891 13.6365C27.7789 13.8001 27.5039 14.0233 27.2801 14.2933L13.9467 30.2933C13.5545 30.7705 13.3401 31.369 13.3401 31.9867C13.3401 32.6043 13.5545 33.2028 13.9467 33.68L26.8267 49.68C27.0777 49.9894 27.3948 50.2386 27.7548 50.4094C28.1147 50.5801 28.5083 50.668 28.9067 50.6667C29.4114 50.6684 29.9061 50.5269 30.3335 50.2586C30.7609 49.9903 31.1034 49.6063 31.3213 49.1511C31.5391 48.6959 31.6233 48.1882 31.5641 47.6871C31.5048 47.1859 31.3046 46.7119 30.9867 46.32L19.4401 32L31.3867 17.68C31.8319 17.1373 32.0452 16.441 31.9803 15.7421C31.9154 15.0432 31.5775 14.3981 31.0401 13.9467Z" fill="#333333"/>
<path d="M38.1067 32L50.0534 17.68C50.506 17.1354 50.7238 16.4333 50.6587 15.7282C50.5937 15.0231 50.2513 14.3726 49.7067 13.92C49.1621 13.4674 48.46 13.2496 47.7549 13.3146C47.0497 13.3796 46.3993 13.7221 45.9467 14.2667L32.6133 30.2667C32.2211 30.7438 32.0067 31.3423 32.0067 31.96C32.0067 32.5777 32.2211 33.1762 32.6133 33.6533L45.4933 49.6533C45.7443 49.9627 46.0614 50.2119 46.4214 50.3827C46.7813 50.5534 47.175 50.6414 47.5733 50.64C48.078 50.6417 48.5727 50.5002 49.0001 50.2319C49.4275 49.9637 49.7701 49.5796 49.9879 49.1244C50.2057 48.6692 50.2899 48.1616 50.2307 47.6604C50.1715 47.1593 49.9713 46.6852 49.6534 46.2933L38.1067 32Z" fill="#333333"/>
</svg>
